<svg width="48" height="48" viewBox="0 0 48 48" fill="none" xmlns="http://www.w3.org/2000/svg">
<g clip-path="url(#clip0_5267_8991)">
<path d="M23.6535 28.1312C25.7856 28.1312 27.514 26.4028 27.514 24.2707C27.514 22.1386 25.7856 20.4102 23.6535 20.4102C21.5214 20.4102 19.793 22.1386 19.793 24.2707C19.793 26.4028 21.5214 28.1312 23.6535 28.1312Z" fill="#61DAFB"/>
<path d="M23.6564 32.182C35.097 32.182 44.3715 28.6409 44.3715 24.2727C44.3715 19.9044 35.097 16.3633 23.6564 16.3633C12.2158 16.3633 2.94141 19.9044 2.94141 24.2727C2.94141 28.6409 12.2158 32.182 23.6564 32.182Z" stroke="#61DAFB" stroke-width="1.88319"/>
<path d="M16.8065 28.2202C22.5268 38.1281 30.2308 44.3894 34.0138 42.2053C37.7967 40.0212 36.2263 30.2187 30.506 20.3108C24.7857 10.403 17.0817 4.14167 13.2987 6.32578C9.51572 8.5099 11.0862 18.3124 16.8065 28.2202Z" stroke="#61DAFB" stroke-width="1.88319"/>
<path d="M16.8063 20.3194C11.086 30.2273 9.51553 40.0298 13.2985 42.2139C17.0815 44.398 24.7855 38.1367 30.5058 28.2288C36.2261 18.321 37.7966 8.51849 34.0136 6.33437C30.2306 4.15026 22.5266 10.4116 16.8063 20.3194Z" stroke="#61DAFB" stroke-width="1.88319"/>
</g>
<defs>
<clipPath id="clip0_5267_8991">
<rect width="43.3133" height="38.5365" fill="white" transform="translate(2 5)"/>
</clipPath>
</defs>
</svg>
