<svg width="48" height="48" viewBox="0 0 48 48" fill="none" xmlns="http://www.w3.org/2000/svg">
<g clip-path="url(#clip0_5268_9013)">
<mask id="mask0_5268_9013" style="mask-type:luminance" maskUnits="userSpaceOnUse" x="3" y="10" width="42" height="26">
<path d="M3 10.668H45V35.868H3V10.668Z" fill="white"/>
</mask>
<g mask="url(#mask0_5268_9013)">
<path fill-rule="evenodd" clip-rule="evenodd" d="M24 10.668C18.4 10.668 14.9 13.468 13.5 19.068C15.6 16.268 18.05 15.218 20.85 15.918C22.4476 16.317 23.5893 17.4766 24.8532 18.7592C26.912 20.8491 29.2951 23.268 34.5 23.268C40.1 23.268 43.6 20.468 45 14.868C42.9 17.668 40.45 18.718 37.65 18.018C36.0524 17.619 34.9107 16.4593 33.6468 15.1767C31.588 13.0869 29.2049 10.668 24 10.668ZM13.5 23.268C7.9 23.268 4.4 26.068 3 31.668C5.1 28.868 7.55 27.818 10.35 28.518C11.9476 28.9177 13.0893 30.0766 14.3532 31.3592C16.412 33.4491 18.7951 35.868 24 35.868C29.6 35.868 33.1 33.068 34.5 27.468C32.4 30.268 29.95 31.318 27.15 30.618C25.5524 30.219 24.4107 29.0593 23.1468 27.7767C21.088 25.6869 18.7049 23.268 13.5 23.268Z" fill="#38BDF8"/>
</g>
</g>
<defs>
<clipPath id="clip0_5268_9013">
<rect width="42" height="25.6667" fill="white" transform="translate(3 10.668)"/>
</clipPath>
</defs>
</svg>
